<?xml version="1.0" encoding="UTF-8" standalone="no"?>
<svg
   data-name="Layer 1"
   width="512"
   height="512"
   viewBox="0 0 512 512.00002"
   version="1.1"
   id="svg21"
   sodipodi:docname="progress.svg"
   inkscape:version="1.4 (86a8ad7, 2024-10-11)"
   xmlns:inkscape="http://www.inkscape.org/namespaces/inkscape"
   xmlns:sodipodi="http://sodipodi.sourceforge.net/DTD/sodipodi-0.dtd"
   xmlns="http://www.w3.org/2000/svg"
   xmlns:svg="http://www.w3.org/2000/svg">
  <defs
     id="defs21" />
  <sodipodi:namedview
     id="namedview21"
     pagecolor="#ffffff"
     bordercolor="#000000"
     borderopacity="0.25"
     inkscape:showpageshadow="2"
     inkscape:pageopacity="0.0"
     inkscape:pagecheckerboard="0"
     inkscape:deskcolor="#d1d1d1"
     inkscape:zoom="0.46590263"
     inkscape:cx="360.59036"
     inkscape:cy="183.51474"
     inkscape:window-width="1366"
     inkscape:window-height="697"
     inkscape:window-x="-8"
     inkscape:window-y="-8"
     inkscape:window-maximized="1"
     inkscape:current-layer="svg21" />
  <g
     id="g21"
     transform="matrix(0.58977193,0,0,0.58977193,-1.544573e-6,87.1249)">
    <path
       d="m 969.807,735.7308 0.95117,-1.75879 c -12.75342,-6.89746 -28.62573,-15.481 -36.916,-29.56738 -8.17237,-13.88623 -8.35572,-32.74268 -0.47852,-49.21094 6.70361,-14.01563 19.01782,-26.57227 35.61108,-36.313 3.273,-1.92139 6.70874,-3.74219 10.0315,-5.50342 8.03149,-4.25634 16.33642,-8.6582 23.18437,-14.90283 9.4316,-8.60107 16.5678,-23.03467 11.249,-35.89111 a 23.85569,23.85569 0 0 0 -20.67754,-14.46729 l -0.1128,1.99707 a 21.86063,21.86063 0 0 1 18.94774,13.24805 c 4.9427,11.94727 -1.8386,25.50488 -10.7541,33.63574 -6.66068,6.07373 -14.85184,10.415 -22.77323,14.61328 -3.34155,1.771 -6.79711,3.60254 -10.10766,5.5459 -16.93848,9.94336 -29.52637,22.79785 -36.40259,37.17432 -8.1604,17.06054 -7.94629,36.63672 0.55908,51.08887 8.57282,14.56592 24.71662,23.29688 37.6885,30.31153 z"
       transform="translate(-165.9339,-163.66033)"
       fill="#f1f1f1"
       id="path1" />
    <ellipse
       cx="814.15247"
       cy="386.49689"
       rx="17.5"
       ry="8.5"
       fill="#f1f1f1"
       id="ellipse1" />
    <ellipse
       cx="800.15247"
       cy="442.49689"
       rx="17.5"
       ry="8.5"
       fill="#f1f1f1"
       id="ellipse2" />
    <ellipse
       cx="832.15247"
       cy="451.49689"
       rx="17.5"
       ry="8.5"
       fill="#f1f1f1"
       id="ellipse3" />
    <ellipse
       cx="782.15247"
       cy="498.49689"
       rx="17.5"
       ry="8.5"
       fill="#f1f1f1"
       id="ellipse4" />
    <ellipse
       cx="747.15247"
       cy="498.49689"
       rx="17.5"
       ry="8.5"
       fill="#f1f1f1"
       id="ellipse5" />
    <path
       d="m 756.67618,512.12436 a 8.00164,8.00164 0 0 0 6.79995,-10.21293 l 23.13873,-16.52765 -13.7895,-5.30973 -19.85885,16.509 a 8.045,8.045 0 0 0 3.70967,15.54134 z"
       transform="translate(-165.9339,-163.66033)"
       fill="#ffb7b7"
       id="path5" />
    <path
       d="m 769.52217,501.23908 -7.676,-13.11025 0.163,-0.1859 30.97067,-35.25912 24.04642,-41.00781 20.88121,2.66137 0.3081,6.31172 -0.0624,0.0943 -33.17516,49.8699 -0.0353,0.0301 z"
       transform="translate(-165.9339,-163.66033)"
       fill="#3f3d56"
       id="path6" />
    <path
       d="m 763.05652,511.6431 -41.48791,23.48047 -30.36135,-53.64583 41.48791,-23.48046 z"
       transform="translate(-165.9339,-163.66033)"
       fill="#e5e5e5"
       id="path7" />
    <rect
       x="708.72571"
       y="484.4256"
       width="25.562651"
       height="4.3923101"
       transform="rotate(-29.50809,327.81647,719.83184)"
       fill="#711500"
       id="rect7"
       style="fill:#cb4154;fill-opacity:1" />
    <rect
       x="714.35059"
       y="494.36426"
       width="25.562651"
       height="4.3923101"
       transform="rotate(-29.50809,333.44135,729.7705)"
       fill="#711500"
       id="rect8"
       style="fill:#cb4154;fill-opacity:1" />
    <rect
       x="719.97546"
       y="504.30295"
       width="25.562651"
       height="4.3923101"
       transform="rotate(-29.50809,339.06624,739.70917)"
       fill="#711500"
       id="rect9"
       style="fill:#cb4154;fill-opacity:1" />
    <polygon
       points="694.107,559.425 688.489,513.877 705.917,513.878 705.915,559.425 "
       fill="#ffb7b7"
       id="polygon9" />
    <path
       d="m 874.86067,734.53223 -38.07617,-10e-4 v -0.4816 a 14.82108,14.82108 0 0 1 14.82031,-14.82007 h 9.4e-4 l 23.25562,9.4e-4 z"
       transform="translate(-165.9339,-163.66033)"
       fill="#2f2e41"
       id="path9" />
    <polygon
       points="592.8,556.296 597.913,510.689 614.864,514.737 604.285,559.039 "
       fill="#ffb7b7"
       id="polygon10" />
    <path
       d="m 770.49036,734.53223 -37.035,-8.84335 0.11183,-0.46844 a 14.82112,14.82112 0 0 1 17.85667,-10.9734 l 9.1e-4,2.2e-4 22.61969,5.40129 z"
       transform="translate(-165.9339,-163.66033)"
       fill="#2f2e41"
       id="path10" />
    <path
       d="M 816.11291,390.85205 V 370.975 a 26.6353,26.6353 0 1 1 53.27059,0 v 19.87708 a 3.58191,3.58191 0 0 1 -3.57787,3.57788 h -46.11484 a 3.58191,3.58191 0 0 1 -3.57788,-3.57791 z"
       transform="translate(-165.9339,-163.66033)"
       fill="#2f2e41"
       id="path11" />
    <circle
       cx="670.24078"
       cy="210.93947"
       r="19.52807"
       fill="#ffb7b7"
       id="circle11" />
    <path
       d="m 809.81164,372.56513 a 21.09354,21.09354 0 0 1 21.06971,-21.06971 h 3.97565 a 21.09337,21.09337 0 0 1 21.06952,21.06971 v 0.39755 h -8.40137 l -2.86548,-8.02383 -0.573,8.02383 h -4.3419 l -1.44575,-4.04841 -0.28923,4.04841 h -28.19815 z"
       transform="translate(-165.9339,-163.66033)"
       fill="#2f2e41"
       id="path12" />
    <path
       d="M 847.5653,477.66724 797.844,475.77486 795.06428,443.246 c -2.14364,-5.954 -2.17841,-11.06608 -0.10281,-15.19387 a 15.2086,15.2086 0 0 1 8.39652,-7.25725 l 10.87968,-13.14034 a 14.80868,14.80868 0 0 1 11.49838,-5.35951 l 28.26685,0.19325 c 0.68189,-0.40991 4.81453,-2.51025 12.96564,1.02309 8.8412,3.8329 6.78817,17.14443 6.76627,17.27816 l -0.0202,0.125 -0.0971,0.0822 -18.80327,15.83447 z"
       transform="translate(-165.9339,-163.66033)"
       fill="#3f3d56"
       id="path13" />
    <polygon
       points="632.306,308.619 608.787,351.499 590.956,546.581 611.102,552.734 646.764,400.129 688.15,548.404 712.3,549.009 695.857,377.898 681.487,311.649 "
       fill="#2f2e41"
       id="polygon13" />
    <path
       d="m 861.075,541.69843 a 8.00163,8.00163 0 0 0 -0.42123,-12.26238 l 9.18182,-26.91205 -14.30159,3.71578 -6.52662,24.98647 a 8.045,8.045 0 0 0 12.06762,10.47218 z"
       transform="translate(-165.9339,-163.66033)"
       fill="#ffb7b7"
       id="path14" />
    <path
       d="m 865.17647,525.36726 -13.87573,-6.18534 4.66241,-46.94574 -4.33893,-47.33893 18.52359,-9.99952 3.92669,4.95094 0.004,0.11234 2.08062,59.86074 -0.011,0.0455 z"
       transform="translate(-165.9339,-163.66033)"
       fill="#3f3d56"
       id="path15" />
    <path
       d="M 664.09593,381.82216 H 165.9339 V 163.66033 h 498.162 z"
       transform="translate(-165.9339,-163.66033)"
       fill="#ffffff"
       id="path16" />
    <path
       d="M 664.09593,381.82216 H 165.9339 V 163.66033 h 498.162 z m -493.343,-4.819 h 488.524 V 168.47934 h -488.524 z"
       transform="translate(-165.9339,-163.66033)"
       fill="#e5e5e5"
       id="path17" />
    <polygon
       points="420.333,47.217 335.348,81.458 249.285,175.642 163.756,111.579 79.396,174.766 77.465,172.189 163.756,107.556 248.877,171.313 333.465,78.746 333.805,78.609 419.13,44.23 "
       fill="#3f3d56"
       id="polygon17" />
    <circle
       cx="78.430298"
       cy="173.47742"
       r="9.6594696"
       fill="#711500"
       id="circle17"
       style="fill:#cb4154;fill-opacity:1" />
    <circle
       cx="163.75566"
       cy="110.69083"
       r="9.6594696"
       fill="#711500"
       id="circle18"
       style="fill:#cb4154;fill-opacity:1" />
    <circle
       cx="249.08102"
       cy="173.47742"
       r="9.6594696"
       fill="#711500"
       id="circle19"
       style="fill:#cb4154;fill-opacity:1" />
    <circle
       cx="334.40637"
       cy="80.102493"
       r="9.6594696"
       fill="#711500"
       id="circle20"
       style="fill:#cb4154;fill-opacity:1" />
    <circle
       cx="419.73172"
       cy="44.684422"
       r="9.6594696"
       fill="#711500"
       id="circle21"
       style="fill:#cb4154;fill-opacity:1" />
    <path
       d="m 1033.0661,736.33967 h -381 a 1,1 0 0 1 0,-2 h 381 a 1,1 0 0 1 0,2 z"
       transform="translate(-165.9339,-163.66033)"
       fill="#cbcbcb"
       id="path21" />
  </g>
</svg>
