<?xml version="1.0" encoding="UTF-8" standalone="no"?>
<svg
   data-name="Layer 1"
   width="512"
   height="512"
   viewBox="0 0 512.00001 511.99998"
   version="1.1"
   id="svg24"
   sodipodi:docname="benefit.svg"
   inkscape:version="1.4 (86a8ad7, 2024-10-11)"
   xmlns:inkscape="http://www.inkscape.org/namespaces/inkscape"
   xmlns:sodipodi="http://sodipodi.sourceforge.net/DTD/sodipodi-0.dtd"
   xmlns="http://www.w3.org/2000/svg"
   xmlns:svg="http://www.w3.org/2000/svg">
  <defs
     id="defs24" />
  <sodipodi:namedview
     id="namedview24"
     pagecolor="#ffffff"
     bordercolor="#000000"
     borderopacity="0.25"
     inkscape:showpageshadow="2"
     inkscape:pageopacity="0.0"
     inkscape:pagecheckerboard="0"
     inkscape:deskcolor="#d1d1d1"
     inkscape:zoom="0.44278141"
     inkscape:cx="363.61057"
     inkscape:cy="184.06374"
     inkscape:window-width="1366"
     inkscape:window-height="697"
     inkscape:window-x="-8"
     inkscape:window-y="-8"
     inkscape:window-maximized="1"
     inkscape:current-layer="svg24" />
  <g
     id="g1"
     transform="translate(0.00294493,68.081085)">
    <path
       d="m 483.93413,375.83783 0.58309,-1.07817 c -7.81803,-4.22823 -17.54799,-9.49007 -22.63003,-18.12522 -5.00978,-8.51245 -5.12217,-20.07173 -0.29334,-30.16699 4.10941,-8.59179 11.65819,-16.28918 21.8301,-22.26038 2.00639,-1.17784 4.11255,-2.29403 6.14944,-3.37369 4.92342,-2.60919 10.01447,-5.3076 14.21232,-9.13564 5.78173,-5.27258 10.15635,-14.12058 6.8958,-22.00175 a 14.623876,14.623876 0 0 0 -12.6756,-8.86867 l -0.0691,1.22424 a 13.400863,13.400863 0 0 1 11.61524,8.12124 c 3.02991,7.32384 -1.12709,15.63485 -6.59243,20.61919 -4.08308,3.72328 -9.10437,6.38454 -13.9603,8.95814 -2.04842,1.08565 -4.16673,2.20841 -6.19615,3.39972 -10.38352,6.09542 -18.10007,13.9754 -22.31529,22.78839 -5.00244,10.45835 -4.87119,22.45883 0.34272,31.31819 5.25522,8.92912 15.15159,14.28132 23.10357,18.5814 z"
       fill="#f1f1f1"
       id="path1"
       style="stroke-width:0.613014" />
    <ellipse
       cx="490.23547"
       cy="262.07861"
       rx="10.727747"
       ry="5.2106204"
       fill="#f1f1f1"
       id="ellipse1"
       style="stroke-width:0.613014" />
    <ellipse
       cx="481.65326"
       cy="296.40738"
       rx="10.727747"
       ry="5.2106204"
       fill="#f1f1f1"
       id="ellipse2"
       style="stroke-width:0.613014" />
    <ellipse
       cx="501.26971"
       cy="301.92453"
       rx="10.727747"
       ry="5.2106204"
       fill="#f1f1f1"
       id="ellipse3"
       style="stroke-width:0.613014" />
    <ellipse
       cx="470.61902"
       cy="330.73621"
       rx="10.727747"
       ry="5.2106204"
       fill="#f1f1f1"
       id="ellipse4"
       style="stroke-width:0.613014" />
    <ellipse
       cx="449.16351"
       cy="330.73621"
       rx="10.727747"
       ry="5.2106204"
       fill="#f1f1f1"
       id="ellipse5"
       style="stroke-width:0.613014" />
    <path
       d="M 84.15836,269.4097 H 46.093399 A 3.8923028,3.8923028 0 0 1 42.20543,265.52204 V 140.10061 a 3.8923028,3.8923028 0 0 1 3.887969,-3.88765 H 84.15836 a 3.8923028,3.8923028 0 0 1 3.887968,3.88765 v 125.42143 a 3.8923028,3.8923028 0 0 1 -3.887968,3.88766 z"
       fill="#711500"
       id="path5"
       style="fill:#cb4154;fill-opacity:1;stroke-width:0.613014" />
    <path
       d="m 153.57458,269.4097 h -38.06496 a 3.8923028,3.8923028 0 0 1 -3.88797,-3.88766 V 90.330493 a 3.892309,3.892309 0 0 1 3.88797,-3.887656 h 38.06496 a 3.892309,3.892309 0 0 1 3.88797,3.887656 V 265.52204 a 3.8923028,3.8923028 0 0 1 -3.88797,3.88766 z"
       fill="#711500"
       id="path6"
       style="fill:#cb4154;fill-opacity:1;stroke-width:0.613014" />
    <path
       d="m 222.9908,269.4097 h -38.06497 a 3.8923028,3.8923028 0 0 1 -3.88795,-3.88766 V 140.10061 a 3.8923028,3.8923028 0 0 1 3.88795,-3.88765 h 38.06497 a 3.8923028,3.8923028 0 0 1 3.88797,3.88765 v 125.42143 a 3.8923028,3.8923028 0 0 1 -3.88797,3.88766 z"
       fill="#711500"
       id="path7"
       style="fill:#cb4154;fill-opacity:1;stroke-width:0.613014" />
    <path
       d="m 292.40703,269.4097 h -38.06497 a 3.8072286,3.8072286 0 0 1 -3.88796,-3.71154 V 70.50827 a 3.8072286,3.8072286 0 0 1 3.88796,-3.711531 h 38.06497 a 3.8072286,3.8072286 0 0 1 3.88796,3.711531 v 195.18989 a 3.8072286,3.8072286 0 0 1 -3.88796,3.71154 z"
       fill="#711500"
       id="path8"
       style="fill:#cb4154;fill-opacity:1;stroke-width:0.613014" />
    <path
       d="m 361.82324,269.4097 h -38.06498 a 3.8923028,3.8923028 0 0 1 -3.88796,-3.88766 V 35.32141 a 3.8923028,3.8923028 0 0 1 3.88796,-3.88765 h 38.06496 a 3.8923028,3.8923028 0 0 1 3.88798,3.88765 v 230.20063 a 3.8923028,3.8923028 0 0 1 -3.88796,3.88766 z"
       fill="#711500"
       id="path9"
       style="fill:#cb4154;fill-opacity:1;stroke-width:0.613014" />
    <circle
       cx="65.125885"
       cy="112.63764"
       r="7.8584433"
       fill="#3f3d56"
       id="circle9"
       style="stroke-width:0.613014" />
    <circle
       cx="134.5421"
       cy="61.557777"
       r="7.8584433"
       fill="#3f3d56"
       id="circle10"
       style="stroke-width:0.613014" />
    <circle
       cx="203.95833"
       cy="112.63764"
       r="7.8584433"
       fill="#3f3d56"
       id="circle11"
       style="stroke-width:0.613014" />
    <circle
       cx="273.37454"
       cy="36.672722"
       r="7.8584433"
       fill="#3f3d56"
       id="circle12"
       style="stroke-width:0.613014" />
    <circle
       cx="342.79074"
       cy="7.8584433"
       r="7.8584433"
       fill="#3f3d56"
       id="circle13"
       style="stroke-width:0.613014" />
    <path
       d="M 406.42839,270.86917 H 0.61301415 a 0.61301416,0.61301416 0 1 1 0,-1.22601 H 406.42839 a 0.61301416,0.61301416 0 0 1 0,1.22601 z"
       fill="#cbcbcb"
       id="path13"
       style="stroke-width:0.613014" />
    <path
       d="M 507.57572,375.6946 H 308.95914 a 0.61302,0.61302 0 0 1 0,-1.22604 h 198.61658 a 0.61302,0.61302 0 0 1 0,1.22604 z"
       fill="#cbcbcb"
       id="path14"
       style="stroke-width:0.613014" />
    <path
       d="m 380.02909,260.90533 a 4.8611288,4.8611288 0 0 0 -0.63413,-7.42698 l 2.41019,-10.84397 -6.23262,-3.07192 -3.18856,15.36159 a 4.8875006,4.8875006 0 0 0 7.64512,5.98128 z"
       fill="#ffb7b7"
       id="path15"
       style="stroke-width:0.613014" />
    <path
       d="m 448.18616,261.14302 a 4.8612023,4.8612023 0 0 0 -1.20685,-7.35565 l 1.56397,-10.99795 -6.45162,-2.58048 -1.99045,15.56224 a 4.8875006,4.8875006 0 0 0 8.08497,5.37184 z"
       fill="#ffb7b7"
       id="path16"
       style="stroke-width:0.613014" />
    <polygon
       points="651.864,562.088 651.862,602.078 641.494,602.077 636.562,562.087 "
       fill="#ffb7b7"
       id="polygon16"
       transform="scale(0.61301416)" />
    <path
       d="m 401.22159,375.24307 -20.49333,-7.6e-4 v -0.25921 a 7.977,7.977 0 0 1 7.97658,-7.97645 h 5.1e-4 l 12.51662,5.1e-4 z"
       fill="#2f2e41"
       id="path17"
       style="stroke-width:0.613014" />
    <polygon
       points="686.537,562.088 686.535,602.078 676.167,602.077 671.235,562.087 "
       fill="#ffb7b7"
       id="polygon17"
       transform="scale(0.61301416)" />
    <path
       d="m 422.47659,375.24307 -20.49333,-7.6e-4 v -0.25921 a 7.977,7.977 0 0 1 7.97658,-7.97645 h 5e-4 l 12.51663,5.1e-4 z"
       fill="#2f2e41"
       id="path18"
       style="stroke-width:0.613014" />
    <path
       d="m 433.65249,162.83502 6.85325,-2.4731 c 0,0 2.90886,0.61771 2.90886,8.50618 0,7.88848 7.7252,81.45872 7.7252,81.45872 l -13.5196,3.55972 -7.64153,-69.79978 z"
       fill="#2f2e41"
       id="path19"
       style="stroke-width:0.613014" />
    <path
       d="m 387.85647,162.83502 -6.85326,-2.4731 c 0,0 -2.90886,0.61771 -2.90886,8.50618 0,7.88848 -7.7252,81.45872 -7.7252,81.45872 l 13.5196,3.55972 7.64152,-69.79978 z"
       fill="#2f2e41"
       id="path20"
       style="stroke-width:0.613014" />
    <path
       d="m 387.94423,246.74256 -1.87324,55.26421 4.14741,61.13211 10.6862,0.24696 1.55522,-57.02561 8.81305,-28.51281 -0.88913,84.0395 12.10035,-0.14454 7.49456,-57.81848 c 0,0 9.89683,-47.84989 4.40857,-57.18135 l -25.27581,-8.40521 z"
       fill="#2f2e41"
       id="path21"
       style="stroke-width:0.613014" />
    <path
       d="m 388.15037,240.08326 -0.60995,13.29435 c 0,0 8.52788,4.24379 23.51758,1.65867 14.98968,-2.58511 24.95364,-0.8809 24.95364,-0.8809 l -1.15091,-16.94715 z"
       fill="#e5e5e5"
       id="path22"
       style="stroke-width:0.613014" />
    <path
       d="m 380.73057,160.5583 19.71072,-8.63714 1.17562,-4.52375 19.17483,0.55546 0.82854,4.62143 18.88546,7.78762 -8.32059,28.93254 0.85332,20.3532 10.3761,37.0949 c 0,0 -8.75197,7.43267 -29.77831,4.23475 l -3.62807,-7.31054 -2.21929,7.73111 c 0,0 -18.43766,6.78266 -23.54772,-2.04682 l 3.70305,-63.78143 z"
       fill="#2f2e41"
       id="path23"
       style="stroke-width:0.613014" />
    <circle
       cx="411.02997"
       cy="130.41481"
       r="12.732795"
       fill="#ffb7b7"
       id="circle23"
       style="stroke-width:0.613014" />
    <path
       d="m 426.15893,125.48099 a 7.7545004,7.7545004 0 0 0 -1.28655,-2.87494 15.53362,15.53362 0 0 0 -2.3189,-6.69001 7.0190858,7.0190858 0 0 0 -2.0775,-2.39788 6.132704,6.132704 0 0 0 -3.26854,-0.81492 c -0.2075,-0.003 -0.58081,0.0595 -0.91681,0.0748 -0.21494,-0.0665 -0.43198,-0.12598 -0.64951,-0.18184 -0.12701,-0.28245 -0.37866,-1.10561 -0.4488,-1.04987 l -0.94849,0.75361 c -0.40099,-0.0697 -0.80411,-0.12394 -1.20868,-0.16698 q -0.22098,-0.63022 -0.44194,-1.26046 a 8.636689,8.636689 0 0 0 -0.62661,1.17772 q -0.60405,-0.0296 -1.20894,-0.0207 l -0.80611,-0.77438 a 1.1368777,1.1368777 0 0 1 -0.88933,0.87109 c -0.37092,0.038 -0.74037,0.0878 -1.10859,0.147 -0.03,-1.9e-4 -0.0604,0 -0.0898,-7.4e-4 -1.98525,-0.0495 -4.12139,-0.13855 -5.7815,0.95137 a 5.6970042,5.6970042 0 0 0 -1.84036,2.08884 c -0.20324,0.13815 -0.40717,0.27529 -0.60465,0.42176 a 6.6082927,6.6082927 0 0 0 -1.70281,1.68818 7.1580437,7.1580437 0 0 0 -0.75349,1.82579 17.502272,17.502272 0 0 0 -0.86742,5.97915 8.873993,8.873993 0 0 0 2.18141,5.53809 c 0.85148,0.9148 1.93377,1.59033 2.78635,2.50407 1.7555,1.88139 2.08458,4.50536 3.5861,6.4961 1.58818,2.10555 4.48682,3.49112 7.03251,3.88825 a 11.747233,11.747233 0 0 0 8.75105,-2.18253 5.4139388,5.4139388 0 0 0 1.48996,-1.56216 c 0.88357,-1.52828 0.50909,-3.44914 0.83711,-5.18371 0.61495,-3.25128 3.71777,-5.97967 3.18081,-9.24464 z"
       fill="#2f2e41"
       id="path24"
       style="stroke-width:0.613014" />
    <polygon
       points="105.555,184.546 104.361,182.942 219.477,97.239 332.348,181.429 446.764,57.205 446.969,57.121 558.009,11.292 558.772,13.141 447.936,58.885 332.597,184.11 219.476,99.733 "
       fill="#3f3d56"
       id="polygon24"
       transform="scale(0.61301416)" />
  </g>
</svg>
